<?xml version="1.0" encoding="iso-8859-1"?>
<!-- Generator: Adobe Illustrator 19.0.0, SVG Export Plug-In . SVG Version: 6.00 Build 0)  -->
<svg version="1.1" id="Layer_1" xmlns="http://www.w3.org/2000/svg" xmlns:xlink="http://www.w3.org/1999/xlink" x="0px" y="0px"
	 viewBox="0 0 512.003 512.003" style="enable-background:new 0 0 512.003 512.003;" xml:space="preserve">
<path style="fill:#CD2A00;" d="M364.16,481.836c-4.326,0-7.832-3.507-7.832-7.832v-93.251c0-4.326,3.507-7.832,7.832-7.832
	s7.832,3.507,7.832,7.832v93.251C371.993,478.329,368.487,481.836,364.16,481.836z"/>
<path style="fill:#FF5023;" d="M221.784,249.095l-70.671-62.02c-13.067-13.067-34.448-13.067-47.514,0l0,0
	c-13.067,13.067-13.067,34.448,0,47.514l94.178,90.176h24.007v-75.669H221.784z"/>
<polygon style="fill:#CD2A00;" points="181.706,213.923 181.706,309.377 197.777,324.765 221.784,324.765 221.784,249.095 "/>
<path style="fill:#FF5023;" d="M405.531,264.966l9.309-151.839C414.841,50.908,363.933,0,301.713,0l0,0
	c-62.22,0-113.128,50.908-113.128,113.128l9.411,153.519v91.128H406.36L405.531,264.966z"/>
<path style="fill:#CD2A00;" d="M418.203,351.91v27.493c0,5.433-4.525,9.838-10.108,9.838H198.693
	c-5.582,0-10.108-4.404-10.108-9.838V351.91c0-5.433,4.525-9.838,10.108-9.838h209.403
	C413.678,342.072,418.203,346.476,418.203,351.91z"/>
<polygon style="fill:#FF7956;" points="249.14,251.021 276.022,224.138 302.905,251.021 329.788,224.138 356.672,251.021 
	383.555,224.138 406.482,247.064 410.349,183.982 383.555,157.188 356.672,184.071 329.788,157.188 302.905,184.071 
	276.022,157.188 249.14,184.071 222.257,157.188 193.077,186.368 196.944,249.45 222.257,224.138 "/>
<circle style="fill:#A5001E;" cx="364.158" cy="486.228" r="25.775"/>
<rect x="197.995" y="322.342" style="opacity:0.55;fill:#CD2A00;enable-background:new    ;" width="208.207" height="29.335"/>
<g>
</g>
<g>
</g>
<g>
</g>
<g>
</g>
<g>
</g>
<g>
</g>
<g>
</g>
<g>
</g>
<g>
</g>
<g>
</g>
<g>
</g>
<g>
</g>
<g>
</g>
<g>
</g>
<g>
</g>
</svg>
