<?xml version="1.0" encoding="iso-8859-1"?>
<!-- Generator: Adobe Illustrator 19.0.0, SVG Export Plug-In . SVG Version: 6.00 Build 0)  -->
<svg version="1.1" id="Layer_1" xmlns="http://www.w3.org/2000/svg" xmlns:xlink="http://www.w3.org/1999/xlink" x="0px" y="0px"
	 viewBox="0 0 512.045 512.045" style="enable-background:new 0 0 512.045 512.045;" xml:space="preserve">
<g>
	
		<rect x="316.447" y="449.14" transform="matrix(-0.7067 -0.7075 0.7075 -0.7067 279.1521 1047.3917)" style="fill:#DD5323;" width="80.45" height="33.391"/>
	
		<rect x="345.221" y="420.312" transform="matrix(-0.7067 -0.7075 0.7075 -0.7067 348.6583 1018.5486)" style="fill:#DD5323;" width="80.45" height="33.391"/>
	
		<rect x="374.004" y="391.475" transform="matrix(-0.7067 -0.7075 0.7075 -0.7067 418.1836 989.6977)" style="fill:#DD5323;" width="80.45" height="33.391"/>
	
		<rect x="402.798" y="362.666" transform="matrix(-0.7067 -0.7075 0.7075 -0.7067 487.7089 960.9005)" style="fill:#DD5323;" width="80.45" height="33.391"/>
	
		<rect x="431.58" y="333.83" transform="matrix(-0.7067 -0.7075 0.7075 -0.7067 557.2341 932.0496)" style="fill:#DD5323;" width="80.45" height="33.391"/>
</g>
<g>
	<polygon style="fill:#B90B27;" points="360.779,39.342 256.012,140.908 151.245,39.342 151.245,5.951 360.779,5.951 	"/>
	
		<rect x="138.685" y="425.592" transform="matrix(-0.7075 -0.7067 0.7067 -0.7075 -63.8818 905.1936)" style="fill:#B90B27;" width="33.391" height="80.45"/>
	
		<rect x="109.895" y="396.768" transform="matrix(-0.7075 -0.7067 0.7067 -0.7075 -92.6718 835.6303)" style="fill:#B90B27;" width="33.391" height="80.45"/>
	
		<rect x="81.108" y="367.948" transform="matrix(-0.7075 -0.7067 0.7067 -0.7075 -121.4594 766.076)" style="fill:#B90B27;" width="33.391" height="80.45"/>
	
		<rect x="52.326" y="339.129" transform="matrix(-0.7075 -0.7067 0.7067 -0.7075 -150.2367 696.5279)" style="fill:#B90B27;" width="33.391" height="80.45"/>
	
		<rect x="23.544" y="310.295" transform="matrix(-0.7075 -0.7067 0.7067 -0.7075 -179.0061 626.9529)" style="fill:#B90B27;" width="33.391" height="80.45"/>
</g>
<path style="fill:#DD5323;" d="M45.08,322.079L360.779,5.983l138.743,138.917L183.823,460.996L45.08,322.079z"/>
<path style="fill:#E69824;" d="M328.2,460.996L12.501,144.901L151.245,5.983l315.699,316.095L328.2,460.996z"/>
<g>
</g>
<g>
</g>
<g>
</g>
<g>
</g>
<g>
</g>
<g>
</g>
<g>
</g>
<g>
</g>
<g>
</g>
<g>
</g>
<g>
</g>
<g>
</g>
<g>
</g>
<g>
</g>
<g>
</g>
</svg>
