<?xml version="1.0" encoding="iso-8859-1"?>
<!-- Generator: Adobe Illustrator 19.0.0, SVG Export Plug-In . SVG Version: 6.00 Build 0)  -->
<svg version="1.1" id="Layer_1" xmlns="http://www.w3.org/2000/svg" xmlns:xlink="http://www.w3.org/1999/xlink" x="0px" y="0px"
	 viewBox="0 0 511.425 511.425" style="enable-background:new 0 0 511.425 511.425;" xml:space="preserve">
<path style="fill:#5E2A41;" d="M345.58,463.539c-58.1,0-111.495-8.272-142.823-21.411v9.906c0,6.351-5.154,11.505-11.505,11.505
	H13.489c-6.351,0-11.505-5.154-11.505-11.505v-67.879c0-5.016,3.21-9.262,7.685-10.838c-8.824-20.042-11.148-50.472-8.824-78.361
	c0.345-4.257,0.828-8.606,1.427-12.92c4.234-31.144,13.714-56.363,25.794-69.295v-93.513c0-0.023,0-0.046,0-0.081V59.391
	c0-6.351,5.154-11.505,11.505-11.505c0.023,0,0.046,0,0.081,0h45.836c0.023,0,0.046,0,0.069,0c0.035,0,0.058,0,0.081,0h45.836
	c0.023,0,0.058,0,0.081,0c0.023,0,0.046,0,0.081,0h45.836c0.023,0,0.046,0,0.069,0c0.035,0,0.058,0,0.081,0h45.836
	c0.023,0,0.058,0,0.081,0c2.784,0,5.327,0.989,7.317,2.623c2.566,2.117,4.188,5.304,4.188,8.882
	c0,40.026,8.698,78.395,25.806,114.13c0.483,0.759,0.886,1.588,1.197,2.474c0.207,0.426,0.403,0.863,0.61,1.289
	c4.245,8.514,8.962,16.797,14.117,24.816c0.587,0.966,1.243,1.772,1.864,2.784c0.23,0.391,0.552,0.817,0.771,1.22
	c5.442,8.134,11.332,15.992,17.637,23.493c0.38,0.529,0.828,1.07,1.277,1.565c0.598,0.679,1.139,1.185,1.668,1.921
	c11.309,13.012,23.861,24.943,37.449,35.504c31.708,24.667,69.168,42.016,108.331,50.15c29.752,6.19,53.671,28.82,62.242,57.801
	c0.023,0.081,0.058,0.161,0.069,0.253c0.966,3.302,1.749,6.684,2.301,10.147c0.69,4.349,1.047,8.801,1.047,13.231v9.791
	c0,17.396-18.063,31.133-53.682,40.854C427.634,459.017,387.804,463.539,345.58,463.539z M488.415,409.96v-9.354
	c-31.317,16.694-90.05,24.322-142.835,24.322c-68.961,0-131.295-11.655-157.964-29.269H35.567c-0.046,0-10.573,0-10.573,0v44.869
	h154.754v-17.764c0-1.783,0.46-3.624,1.243-5.189c0.506-1.012,1.174-2.036,2.002-2.819c2.082-1.944,4.602-3.267,7.49-3.452
	c1.484-0.092,3.049,0.069,4.464,0.575c1.185,0.426,2.37,1.012,3.359,1.795c16.797,13.012,74.127,26.853,147.275,26.853
	c40.233,0,77.912-4.234,106.111-11.919C482.03,420.337,488.415,411.387,488.415,409.96z M441.509,392.53
	c21.998-4.97,35.458-10.964,42.131-15.911c-7.536-17.833-23.367-31.363-42.557-35.355c-42.591-8.847-83.319-27.704-117.788-54.511
	c-2.358-1.852-4.694-3.739-7.007-5.66l-23.102,34.239c-2.22,3.302-5.845,5.074-9.538,5.074c-2.22,0-4.452-0.633-6.431-1.967
	c-5.269-3.555-6.65-10.7-3.106-15.969l24.908-36.92c-3.486-3.394-6.88-6.903-10.182-10.47l-31.558,28.406
	c-2.197,1.979-4.947,2.957-7.697,2.957c-3.141,0-6.282-1.289-8.548-3.808c-4.257-4.729-3.877-12,0.851-16.257l31.984-28.797
	c-3.141-3.981-6.167-8.03-9.089-12.161l-38.599,20.513c-1.714,0.92-3.567,1.358-5.384,1.358c-4.119,0-8.1-2.22-10.17-6.109
	c-2.991-5.614-0.851-12.575,4.752-15.555l36.805-19.57c-2.531-4.257-4.947-8.571-7.248-12.943l-43.661,10.884
	c-0.932,0.23-1.864,0.345-2.784,0.345c-5.166,0-9.848-3.498-11.16-8.721c-1.53-6.167,2.22-12.414,8.387-13.956l39.14-9.756
	c-5.729-13.449-10.4-27.209-13.979-41.257H51.075v87.829c0,4.613-2.715,8.583-6.638,10.412c-3.601,4.004-7.57,11.125-11.114,20.985
	c66.004,4.637,119.019,57.042,124.611,122.77h33.318c0.115,0,0.23,0.012,0.345,0.023c0.219,0,0.426,0.012,0.633,0.023
	c0.184,0.023,0.357,0.046,0.529,0.069c0.196,0.023,0.391,0.046,0.587,0.081c0.184,0.035,0.368,0.081,0.541,0.127
	c0.184,0.035,0.368,0.081,0.552,0.138c0.184,0.046,0.368,0.115,0.552,0.173c0.161,0.057,0.334,0.115,0.506,0.184
	c0.184,0.081,0.368,0.161,0.552,0.242c0.161,0.069,0.311,0.15,0.46,0.219c0.196,0.104,0.38,0.207,0.564,0.311
	c0.138,0.092,0.276,0.173,0.414,0.253c0.196,0.127,0.368,0.253,0.552,0.391c0.092,0.058,0.173,0.115,0.265,0.184
	c16.797,13.012,74.127,26.853,147.275,26.853C380.659,401.918,414.725,398.581,441.509,392.53z M212.03,107.643V70.896h-22.987
	v36.747H212.03z M166.033,107.643V70.896h-22.975v36.747H166.033z M36.648,372.649h98.184
	c-5.66-55.063-51.531-98.379-107.675-100.036c-0.782,3.958-1.496,8.146-2.094,12.552c-0.541,3.912-0.978,7.846-1.289,11.689
	C20.092,341.08,30.044,369.278,36.648,372.649z M120.048,107.643V70.896H97.061v36.747H120.048z M74.051,107.643V70.896H51.075
	v36.747H74.051z"/>
<path style="fill:#E6B263;" d="M488.415,400.606v9.354c0,1.427-6.385,10.377-36.724,18.65
	c-28.199,7.685-65.878,11.919-106.111,11.919c-73.149,0-130.478-13.84-147.275-26.853c-0.989-0.782-2.174-1.369-3.359-1.795
	c-1.415-0.506-2.98-0.667-4.464-0.575c-2.888,0.184-5.407,1.507-7.49,3.452c-0.828,0.782-1.496,1.806-2.002,2.819
	c-0.782,1.565-1.243,3.405-1.243,5.189v17.764H24.994v-44.87c0,0,10.527,0,10.573,0h152.05
	c26.669,17.614,89.003,29.269,157.964,29.269C398.365,424.928,457.098,417.3,488.415,400.606z"/>
<path style="fill:#F2D59F;" d="M483.64,376.618c-6.673,4.947-20.134,10.941-42.131,15.911c-26.784,6.052-60.85,9.388-95.929,9.388
	c-73.149,0-130.478-13.841-147.275-26.853c-0.092-0.069-0.173-0.127-0.265-0.184c-0.184-0.138-0.357-0.265-0.552-0.391
	c-0.138-0.081-0.276-0.161-0.414-0.253c-0.184-0.104-0.368-0.207-0.564-0.311c-0.15-0.069-0.299-0.15-0.46-0.219
	c-0.184-0.081-0.368-0.161-0.552-0.242c-0.173-0.069-0.345-0.127-0.506-0.184c-0.184-0.058-0.368-0.127-0.552-0.173
	c-0.184-0.057-0.368-0.104-0.552-0.138c-0.173-0.046-0.357-0.092-0.541-0.127c-0.196-0.035-0.391-0.058-0.587-0.081
	c-0.173-0.023-0.345-0.046-0.529-0.069c-0.207-0.012-0.414-0.023-0.633-0.023c-0.115-0.012-0.23-0.023-0.345-0.023h-33.318
	c-5.591-65.728-58.606-118.133-124.611-122.77c3.544-9.86,7.513-16.981,11.114-20.985c3.923-1.829,6.638-5.799,6.638-10.412v-87.829
	h169.802c3.578,14.048,8.249,27.808,13.979,41.257l-39.14,9.756c-6.167,1.542-9.917,7.789-8.387,13.956
	c1.312,5.223,5.994,8.721,11.16,8.721c0.92,0,1.852-0.115,2.784-0.345l43.661-10.884c2.301,4.372,4.717,8.686,7.248,12.943
	l-36.805,19.57c-5.603,2.98-7.743,9.94-4.752,15.555c2.071,3.889,6.052,6.109,10.17,6.109c1.818,0,3.67-0.437,5.384-1.358
	l38.599-20.513c2.922,4.13,5.948,8.18,9.089,12.161l-31.984,28.797c-4.729,4.257-5.108,11.528-0.851,16.257
	c2.266,2.52,5.407,3.808,8.548,3.808c2.75,0,5.499-0.978,7.697-2.957l31.558-28.406c3.302,3.567,6.696,7.076,10.182,10.47
	l-24.908,36.92c-3.544,5.269-2.163,12.414,3.106,15.969c1.979,1.335,4.211,1.967,6.431,1.967c3.693,0,7.317-1.772,9.538-5.074
	l23.102-34.239c2.313,1.921,4.648,3.808,7.007,5.66c34.469,26.807,75.197,45.663,117.788,54.511
	C460.274,345.256,476.105,358.786,483.64,376.618z"/>
<g>
	<rect x="189.039" y="70.896" style="fill:#FF7124;" width="22.987" height="36.747"/>
	<rect x="143.053" y="70.896" style="fill:#FF7124;" width="22.975" height="36.747"/>
</g>
<path style="fill:#F2D59F;" d="M134.832,372.649H36.648c-6.604-3.371-16.556-31.57-12.874-75.795
	c0.311-3.843,0.748-7.777,1.289-11.689c0.598-4.406,1.312-8.594,2.094-12.552C83.301,274.27,129.171,317.586,134.832,372.649z"/>
<g>
	<rect x="97.056" y="70.896" style="fill:#FF7124;" width="22.987" height="36.747"/>
	<rect x="51.075" y="70.896" style="fill:#FF7124;" width="22.975" height="36.747"/>
</g>
<g>
</g>
<g>
</g>
<g>
</g>
<g>
</g>
<g>
</g>
<g>
</g>
<g>
</g>
<g>
</g>
<g>
</g>
<g>
</g>
<g>
</g>
<g>
</g>
<g>
</g>
<g>
</g>
<g>
</g>
</svg>
