<?xml version="1.0" encoding="iso-8859-1"?>
<!-- Generator: Adobe Illustrator 19.0.0, SVG Export Plug-In . SVG Version: 6.00 Build 0)  -->
<svg version="1.1" id="Layer_1" xmlns="http://www.w3.org/2000/svg" xmlns:xlink="http://www.w3.org/1999/xlink" x="0px" y="0px"
	 viewBox="0 0 511.349 511.349" style="enable-background:new 0 0 511.349 511.349;" xml:space="preserve">
<path style="fill:#8ECAC1;" d="M485.301,379.429v78.913c0,7.072-5.757,12.842-12.842,12.842h-30.437v-52.291
	c0-7.202-5.835-13.024-13.024-13.024s-13.024,5.822-13.024,13.024v52.291h-43.279v-52.291c0-7.202-5.835-13.024-13.024-13.024
	c-7.202,0-13.024,5.822-13.024,13.024v52.291h-43.279v-52.291c0-7.202-5.835-13.024-13.024-13.024
	c-7.202,0-13.024,5.822-13.024,13.024v52.291h-43.292v-52.291c0-7.202-5.822-13.024-13.024-13.024
	c-7.189,0-13.024,5.822-13.024,13.024v52.291h-43.279v-52.291c0-7.202-5.822-13.024-13.024-13.024
	c-7.189,0-13.024,5.822-13.024,13.024v52.291H95.375v-52.291c0-7.202-5.835-13.024-13.024-13.024
	c-7.189,0-13.024,5.822-13.024,13.024v52.291H38.89c-7.085,0-12.842-5.77-12.842-12.842v-78.913c0-7.085,5.757-12.842,12.842-12.842
	h433.569C479.544,366.587,485.301,372.344,485.301,379.429z"/>
<path style="fill:#F2D59F;" d="M452.103,236.594v103.945H59.246V236.594c0-108.308,88.12-196.428,196.428-196.428
	S452.103,128.287,452.103,236.594z M268.698,85.242c0-7.189-5.835-13.024-13.024-13.024c-90.634,0-164.376,73.742-164.376,164.376
	c0,7.202,5.835,13.024,13.024,13.024c7.189,0,13.024-5.822,13.024-13.024c0-76.269,62.059-138.328,138.328-138.328
	C262.864,98.266,268.698,92.444,268.698,85.242z"/>
<g>
	<path style="fill:#5E2A41;" d="M511.349,379.429v78.913c0,21.438-17.452,38.89-38.89,38.89H38.89
		c-21.438,0-38.89-17.452-38.89-38.89v-78.913c0-19.51,14.444-35.699,33.198-38.473V236.594
		c0-122.673,99.803-222.476,222.476-222.476s222.476,99.803,222.476,222.476v104.361
		C496.905,343.73,511.349,359.919,511.349,379.429z M485.301,458.341v-78.913c0-7.085-5.757-12.842-12.842-12.842H38.89
		c-7.085,0-12.842,5.757-12.842,12.842v78.913c0,7.072,5.757,12.842,12.842,12.842h30.437v-52.291
		c0-7.202,5.835-13.024,13.024-13.024s13.024,5.822,13.024,13.024v52.291h43.279v-52.291c0-7.202,5.835-13.024,13.024-13.024
		c7.202,0,13.024,5.822,13.024,13.024v52.291h43.279v-52.291c0-7.202,5.835-13.024,13.024-13.024
		c7.202,0,13.024,5.822,13.024,13.024v52.291h43.292v-52.291c0-7.202,5.822-13.024,13.024-13.024
		c7.189,0,13.024,5.822,13.024,13.024v52.291h43.279v-52.291c0-7.202,5.822-13.024,13.024-13.024
		c7.189,0,13.024,5.822,13.024,13.024v52.291h43.279v-52.291c0-7.202,5.835-13.024,13.024-13.024s13.024,5.822,13.024,13.024v52.291
		h30.437C479.544,471.183,485.301,465.413,485.301,458.341z M452.103,340.539V236.594c0-108.308-88.12-196.428-196.428-196.428
		S59.246,128.287,59.246,236.594v103.945H452.103z"/>
	<path style="fill:#5E2A41;" d="M255.674,72.218c7.189,0,13.024,5.835,13.024,13.024c0,7.202-5.835,13.024-13.024,13.024
		c-76.269,0-138.328,62.059-138.328,138.328c0,7.202-5.835,13.024-13.024,13.024c-7.189,0-13.024-5.822-13.024-13.024
		C91.298,145.96,165.04,72.218,255.674,72.218z"/>
</g>
<g>
</g>
<g>
</g>
<g>
</g>
<g>
</g>
<g>
</g>
<g>
</g>
<g>
</g>
<g>
</g>
<g>
</g>
<g>
</g>
<g>
</g>
<g>
</g>
<g>
</g>
<g>
</g>
<g>
</g>
</svg>
