<?xml version="1.0" encoding="iso-8859-1"?>
<!-- Generator: Adobe Illustrator 19.0.0, SVG Export Plug-In . SVG Version: 6.00 Build 0)  -->
<svg version="1.1" id="Layer_1" xmlns="http://www.w3.org/2000/svg" xmlns:xlink="http://www.w3.org/1999/xlink" x="0px" y="0px"
	 viewBox="0 0 511.477 511.477" style="enable-background:new 0 0 511.477 511.477;" xml:space="preserve">
<polygon style="fill:#F2D59F;" points="385.229,110.136 447.082,330.01 408.12,342.156 362.212,207.225 "/>
<path style="fill:#5E2A41;" d="M266.033,361.71c5.775,0,10.462,4.687,10.462,10.462c0,5.775-4.687,10.462-10.462,10.462
	c-5.775,0-10.462-4.687-10.462-10.462C255.571,366.397,260.258,361.71,266.033,361.71z"/>
<g>
	<rect x="234.489" y="20.924" style="fill:#E6B263;" width="42.843" height="14.187"/>
	<polygon style="fill:#E6B263;" points="277.332,56.036 277.332,71.886 255.927,118.286 234.489,71.854 234.489,56.036 	"/>
	<polygon style="fill:#E6B263;" points="452.752,350.149 457.889,368.437 420.895,379.705 414.858,361.961 	"/>
	<polygon style="fill:#E6B263;" points="349.427,344.165 350.421,363.363 320.949,343.788 329.497,330.93 	"/>
	<polygon style="fill:#E6B263;" points="181.969,330.93 190.517,343.788 161.066,363.342 162.059,344.155 	"/>
	<polygon style="fill:#E6B263;" points="96.618,361.972 90.582,379.705 53.587,368.437 58.724,350.149 	"/>
</g>
<polygon style="fill:#F2D59F;" points="213.565,40.792 213.565,63.715 195.622,63.715 "/>
<path style="fill:#5E2A41;" d="M478.866,365.728c0.45,1.58,0.659,3.181,0.659,4.76c0,7.627-4.98,14.752-12.597,17.074
	c0,0-42.822,13.842-48.095,13.831c-7.418-0.021-14.25-4.666-16.771-12.073L366.7,285.367l8.056,190.988
	c0.272,9.113-6.33,16.917-15.369,18.152c0,0-124.323,16.97-125.118,16.97c-4.269,0-8.422-1.538-11.676-4.373
	c-3.871-3.369-6.099-8.234-6.11-13.371v-0.021h-61.957c-4.844,0-9.385-1.925-12.764-5.398c-3.379-3.484-5.158-8.077-5.011-12.921
	l8.035-190.057L109.414,389.32c-2.521,7.407-9.385,11.425-16.771,12.073c-4.949,0.429-48.095-13.831-48.095-13.831
	c-9.186-2.804-14.542-12.597-11.937-21.835l84.43-300.13c0.01-0.052,0.031-0.094,0.052-0.146c0.879-2.961,3.045-5.482,6.079-6.717
	l73.089-29.775l19.533-24.942c0.01-0.01,0.01-0.01,0.021-0.021C217.729,1.569,220.7,0,224.027,0h63.767
	c3.327,0,6.277,1.559,8.192,3.965c0.021,0.021,0.031,0.031,0.052,0.052l19.7,25.151l72.576,29.566
	c3.076,1.245,5.252,3.819,6.11,6.832c0.01,0.01,0.01,0.021,0.01,0.031L478.866,365.728z M457.889,368.437l-5.137-18.288
	l-37.894,11.812l6.037,17.744L457.889,368.437z M447.082,330.01l-61.853-219.874l-23.017,97.089l45.908,134.931L447.082,330.01z
	 M341.162,205.321L372.12,74.732l-30.403-12.387l4.216,5.378c2.459,3.149,2.919,7.439,1.161,11.038
	c-1.747,3.589-5.398,5.88-9.406,5.88h-29.901l32.213,46.484c1.611,2.312,2.207,5.179,1.684,7.941
	c-0.534,2.762-2.166,5.2-4.509,6.748l-99.799,65.954v278.305l0.021,0.021l116.35-15.934l-2.636-87.736l-42.32-28.102
	c-3.725-2.48-6.267-6.256-7.146-10.64c-0.889-4.384-0.01-8.851,2.469-12.576l14.909-22.441c2.877-4.331,8.725-5.503,13.057-2.626
	l15.861,10.535c0,0-7.041-112.207-7.041-112.228C340.869,207.874,341.037,205.823,341.162,205.321z M350.421,363.363l-0.994-19.198
	l-19.931-13.235l-8.548,12.858L350.421,363.363z M316.712,134.251l-27.076-39.066l-37.821,81.961L316.712,134.251z M316.21,63.715
	l-17.953-22.923v22.923H316.21z M277.332,71.886v-15.85h-42.843v15.819l21.437,46.431L277.332,71.886z M277.332,35.111V20.924
	h-42.843v14.187H277.332z M244.397,143.259l-22.19-48.084l-27.087,39.066l40.949,27.066L244.397,143.259z M217.739,201.042
	l9.468-20.516l-52.541-34.724c-2.354-1.548-3.976-3.986-4.509-6.748s0.073-5.629,1.674-7.941l32.213-46.473h-29.911
	c-3.997,0-7.648-2.291-9.406-5.88c-1.747-3.599-1.297-7.889,1.172-11.038l4.373-5.587l-30.905,12.597l30.958,130.589
	c0.199,0.827,0.262,1.663,0.251,2.511c0,0.146-7.031,112.73-7.031,112.73l15.84-10.525c4.331-2.877,10.18-1.705,13.057,2.626
	l14.909,22.441c2.48,3.725,3.358,8.192,2.469,12.576c-0.879,4.384-3.421,8.161-7.146,10.64l-42.309,28.091l-2.595,86.376
	l58.683,0.785V206.922C216.453,204.725,217.154,202.13,217.739,201.042z M213.565,63.715V40.792l-17.943,22.923H213.565z
	 M190.517,343.788l-8.548-12.858l-19.91,13.224l-0.994,19.188L190.517,343.788z M149.264,207.215l-23.017-97.079L64.395,329.999
	l38.961,12.157L149.264,207.215z M90.582,379.705l6.037-17.733l-37.894-11.822l-5.137,18.288L90.582,379.705z"/>
<g>
	<path style="fill:#F2D59F;" d="M372.12,74.732l-30.958,130.589c-0.126,0.502-0.293,2.553-0.262,3.024
		c0,0.021,7.041,112.228,7.041,112.228l-15.861-10.535c-4.331-2.877-10.18-1.705-13.057,2.626l-14.909,22.441
		c-2.48,3.725-3.358,8.192-2.469,12.576c0.879,4.384,3.421,8.161,7.146,10.64l42.32,28.102l2.636,87.736l-116.35,15.934
		l-0.021-0.021V211.766l99.799-65.954c2.344-1.548,3.976-3.986,4.509-6.748c0.523-2.762-0.073-5.629-1.684-7.941l-32.213-46.484
		h29.901c4.007,0,7.658-2.291,9.406-5.88c1.758-3.599,1.297-7.889-1.161-11.038l-4.216-5.378L372.12,74.732z M276.495,241.008
		c0-5.775-4.687-10.462-10.462-10.462c-5.775,0-10.462,4.687-10.462,10.462c0,5.786,4.687,10.462,10.462,10.462
		C271.808,251.47,276.495,246.793,276.495,241.008z M276.495,306.585c0-5.775-4.687-10.462-10.462-10.462
		c-5.775,0-10.462,4.687-10.462,10.462c0,5.786,4.687,10.462,10.462,10.462C271.808,317.047,276.495,312.37,276.495,306.585z
		 M276.495,372.172c0-5.775-4.687-10.462-10.462-10.462c-5.775,0-10.462,4.687-10.462,10.462c0,5.775,4.687,10.462,10.462,10.462
		C271.808,382.635,276.495,377.948,276.495,372.172z"/>
	<polygon style="fill:#F2D59F;" points="289.636,95.185 316.712,134.251 251.815,177.146 	"/>
	<polygon style="fill:#F2D59F;" points="298.257,40.792 316.21,63.715 298.257,63.715 	"/>
</g>
<g>
	<path style="fill:#5E2A41;" d="M266.033,230.545c5.775,0,10.462,4.687,10.462,10.462c0,5.786-4.687,10.462-10.462,10.462
		c-5.775,0-10.462-4.677-10.462-10.462C255.571,235.232,260.258,230.545,266.033,230.545z"/>
	<path style="fill:#5E2A41;" d="M266.033,296.123c5.775,0,10.462,4.687,10.462,10.462c0,5.786-4.687,10.462-10.462,10.462
		c-5.775,0-10.462-4.677-10.462-10.462C255.571,300.81,260.258,296.123,266.033,296.123z"/>
</g>
<g>
	<polygon style="fill:#F2D59F;" points="222.207,95.175 244.397,143.259 236.069,161.306 195.12,134.241 	"/>
	<path style="fill:#F2D59F;" d="M227.208,180.526l-9.468,20.516c-0.586,1.088-1.287,3.683-1.287,5.88v266.651l-58.683-0.785
		l2.595-86.376l42.309-28.091c3.725-2.48,6.267-6.256,7.146-10.64c0.889-4.384,0.01-8.851-2.469-12.576l-14.909-22.441
		c-2.877-4.331-8.725-5.503-13.057-2.626l-15.84,10.525c0,0,7.031-112.584,7.031-112.73c0.01-0.847-0.052-1.684-0.251-2.511
		L139.367,74.732l30.905-12.597l-4.373,5.587c-2.469,3.149-2.919,7.439-1.172,11.038c1.758,3.589,5.409,5.88,9.406,5.88h29.911
		l-32.213,46.473c-1.601,2.312-2.208,5.179-1.674,7.941s2.155,5.2,4.509,6.748L227.208,180.526z"/>
	<polygon style="fill:#F2D59F;" points="126.247,110.136 149.264,207.215 103.356,342.156 64.395,329.999 	"/>
</g>
<g>
</g>
<g>
</g>
<g>
</g>
<g>
</g>
<g>
</g>
<g>
</g>
<g>
</g>
<g>
</g>
<g>
</g>
<g>
</g>
<g>
</g>
<g>
</g>
<g>
</g>
<g>
</g>
<g>
</g>
</svg>
