<?xml version="1.0" encoding="iso-8859-1"?>
<!-- Generator: Adobe Illustrator 19.0.0, SVG Export Plug-In . SVG Version: 6.00 Build 0)  -->
<svg version="1.1" id="Layer_1" xmlns="http://www.w3.org/2000/svg" xmlns:xlink="http://www.w3.org/1999/xlink" x="0px" y="0px"
	 viewBox="0 0 512 512" style="enable-background:new 0 0 512 512;" xml:space="preserve">
<circle style="fill:#EED898;" cx="255.999" cy="105.315" r="105.315"/>
<path style="opacity:0.1;enable-background:new    ;" d="M245.859,0.494c-53.404,5.106-95.175,50.079-95.175,104.821
	s41.771,99.714,95.175,104.819c53.404-5.104,95.175-50.077,95.175-104.819S299.264,5.601,245.859,0.494z"/>
<circle style="fill:#AB4A47;" cx="255.999" cy="105.315" r="64.809"/>
<path style="fill:#F9BE00;" d="M149.565,420.97c0-3.046-2.492-5.538-5.538-5.538H76.019c-3.046,0-5.538,2.492-5.538,5.538v31.594
	c0,3.046,2.492,5.538,5.538,5.538h68.009c3.046,0,5.538-2.492,5.538-5.538V420.97z"/>
<path style="fill:#AB4A47;" d="M149.565,241.506v186.492H70.48V241.506c0-43.677,35.407-79.084,79.085-79.084V241.506z"/>
<path style="fill:#FF6D68;" d="M109.055,386.808c0-3.046-2.492-5.538-5.538-5.538H65.119c-3.046,0-5.538,2.492-5.538,5.538v16.219
	c0,3.046,2.492,5.538,5.538,5.538h38.398c3.046,0,5.538-2.492,5.538-5.538V386.808z"/>
<path style="opacity:0.1;enable-background:new    ;" d="M130.101,164.843v293.259h13.926c3.046,0,5.538-2.492,5.538-5.538V162.422
	C142.847,162.422,136.329,163.265,130.101,164.843z"/>
<path style="fill:#F9BE00;" d="M346.848,500.923c0,6.092-4.984,11.076-11.077,11.076H176.229c-6.092,0-11.076-4.984-11.076-11.076
	v-31.745c0-6.092,4.984-11.077,11.076-11.077h159.543c6.092,0,11.077,4.984,11.077,11.077V500.923z"/>
<path style="opacity:0.1;enable-background:new    ;" d="M312.387,458.102H176.229c-6.092,0-11.076,4.984-11.076,11.077v31.745
	c0,6.092,4.984,11.076,11.076,11.076h136.159c6.092,0,11.077-4.984,11.077-11.076v-31.745
	C323.463,463.086,318.479,458.102,312.387,458.102z"/>
<path style="fill:#FF6D68;" d="M149.565,470.563c0,6.092,4.984,11.076,11.076,11.076h190.715c6.092,0,11.077-4.984,11.077-11.076
	v-24.645V162.422H149.565v283.495V470.563z"/>
<rect x="312.467" y="231.82" style="fill:#FFFFFF;" width="26.584" height="16.615"/>
<path style="opacity:0.1;enable-background:new    ;" d="M149.565,162.422v308.14c0,6.092,4.984,11.076,11.076,11.076h167.33
	c6.092,0,11.077-4.984,11.077-11.076v-308.14H149.565z"/>
<path style="fill:#F9BE00;" d="M362.434,420.97c0-3.046,2.492-5.538,5.538-5.538h68.009c3.046,0,5.538,2.492,5.538,5.538v31.594
	c0,3.046-2.492,5.538-5.538,5.538h-68.009c-3.046,0-5.538-2.492-5.538-5.538V420.97z"/>
<path style="fill:#AB4A47;" d="M362.434,241.506v186.492h79.085V241.506c0-43.677-35.407-79.084-79.085-79.084L362.434,241.506
	L362.434,241.506z"/>
<path style="opacity:0.1;enable-background:new    ;" d="M362.434,166.016v286.548c0,3.046,2.492,5.538,5.538,5.538h44.378
	c3.046,0,5.538-2.492,5.538-5.538V241.506C417.888,206.062,394.568,176.064,362.434,166.016z"/>
<path style="fill:#FF6D68;" d="M402.944,386.808c0-3.046,2.492-5.538,5.538-5.538h38.399c3.046,0,5.538,2.492,5.538,5.538v16.219
	c0,3.046-2.492,5.538-5.538,5.538h-38.399c-3.046,0-5.538-2.492-5.538-5.538V386.808z"/>
<rect x="216.124" y="162.426" style="opacity:0.1;enable-background:new    ;" width="49.352" height="319.214"/>
<path style="fill:#F9BE00;" d="M279.383,481.639V157.463c0-3.046-2.492-5.538-5.538-5.538h-35.692c-3.046,0-5.538,2.492-5.538,5.538
	v324.176L279.383,481.639L279.383,481.639z"/>
<path style="opacity:0.05;enable-background:new    ;" d="M259.938,151.925h-21.784c-3.046,0-5.538,2.492-5.538,5.538v324.176
	h32.861V157.463C265.477,154.417,262.984,151.925,259.938,151.925z"/>
<g>
</g>
<g>
</g>
<g>
</g>
<g>
</g>
<g>
</g>
<g>
</g>
<g>
</g>
<g>
</g>
<g>
</g>
<g>
</g>
<g>
</g>
<g>
</g>
<g>
</g>
<g>
</g>
<g>
</g>
</svg>
