<?xml version="1.0" encoding="iso-8859-1"?>
<!-- Generator: Adobe Illustrator 19.0.0, SVG Export Plug-In . SVG Version: 6.00 Build 0)  -->
<svg version="1.1" id="Layer_1" xmlns="http://www.w3.org/2000/svg" xmlns:xlink="http://www.w3.org/1999/xlink" x="0px" y="0px"
	 viewBox="0 0 512 512" style="enable-background:new 0 0 512 512;" xml:space="preserve">
<path style="fill:#E59278;" d="M183.002,133.349c-6.138-3.466-13.181-6.534-15.027-12.22c-2.729-8.407,7.832-19.283,7.832-28.599
	s-10.561-20.193-7.832-28.599c2.829-8.714,17.861-11.284,23.137-18.536c5.331-7.323,3.168-22.397,10.492-27.728
	c7.252-5.277,20.892,1.403,29.605-1.426C239.617,13.511,246.684,0,256,0c9.317,0,16.383,13.511,24.789,16.241
	c8.713,2.829,22.354-3.85,29.606,1.429c7.325,5.33,5.162,20.401,10.492,27.726c5.277,7.252,20.307,9.823,23.136,18.534
	c2.73,8.407-7.831,19.283-7.831,28.6s10.561,20.194,7.832,28.602c-1.846,5.683-8.883,8.753-15.02,12.213"/>
<path style="fill:#DF6246;" d="M280.789,16.241c8.713,2.829,22.354-3.85,29.606,1.429c7.325,5.33,5.162,20.401,10.492,27.726
	c5.277,7.252,20.307,9.823,23.136,18.534c2.73,8.407-7.831,19.283-7.831,28.6s10.561,20.194,7.832,28.602
	c-1.846,5.683-8.883,8.753-15.02,12.213L256,133.347V0C265.317,0,272.383,13.511,280.789,16.241z"/>
<path style="fill:#797781;" d="M83.277,289.928c0-95.392,77.33-172.723,172.723-172.723s172.723,77.331,172.723,172.723v111.036
	H83.277V289.928z"/>
<path style="fill:#58575D;" d="M428.723,289.928v111.036H256V117.205C351.392,117.205,428.723,194.535,428.723,289.928z"/>
<rect x="58.602" y="388.627" style="fill:#E59278;" width="394.795" height="123.373"/>
<rect x="257.234" y="388.627" style="fill:#DF6246;" width="196.164" height="123.373"/>
<g>
</g>
<g>
</g>
<g>
</g>
<g>
</g>
<g>
</g>
<g>
</g>
<g>
</g>
<g>
</g>
<g>
</g>
<g>
</g>
<g>
</g>
<g>
</g>
<g>
</g>
<g>
</g>
<g>
</g>
</svg>
