<?xml version="1.0" encoding="iso-8859-1"?>
<!-- Generator: Adobe Illustrator 19.0.0, SVG Export Plug-In . SVG Version: 6.00 Build 0)  -->
<svg version="1.1" id="Layer_1" xmlns="http://www.w3.org/2000/svg" xmlns:xlink="http://www.w3.org/1999/xlink" x="0px" y="0px"
	 viewBox="0 0 512 512" style="enable-background:new 0 0 512 512;" xml:space="preserve">
<path style="fill:#00AAF0;" d="M346.295,303.929c-1.341-8.377-1.577-16.894-0.704-25.333l23.153-223.815
	c1.078-10.413-7.092-19.471-17.561-19.471h-33.389c-4.875,0-8.828-3.953-8.828-8.828V0H291.31v26.483
	c0,4.875-3.953,8.828-8.828,8.828h-52.966c-4.875,0-8.828-3.953-8.828-8.828V0h-17.655v26.483c0,4.875-3.953,8.828-8.828,8.828
	h-33.389c-10.47,0-18.638,9.058-17.561,19.471l23.153,223.815c0.873,8.439,0.637,16.956-0.704,25.333l-31.656,197.847
	c-0.858,5.364,3.285,10.222,8.717,10.222h86.751c4.875,0,8.828-3.953,8.828-8.828v-343.33c0-8.794,6.009-16.947,14.69-18.358
	c11.061-1.8,20.62,6.691,20.62,17.413v344.276c0,4.875,3.953,8.828,8.828,8.828h86.751c5.432,0,9.575-4.858,8.717-10.222
	L346.295,303.929z"/>
<g>
	<path style="fill:#0096DC;" d="M353.104,0h-44.138v26.483c0,4.875,3.953,8.828,8.828,8.828h33.389
		c4.076,0,7.779,1.401,10.749,3.693V8.828C361.931,3.953,357.979,0,353.104,0z"/>
	<path style="fill:#0096DC;" d="M158.897,0c-4.875,0-8.828,3.953-8.828,8.828v30.176c2.968-2.292,6.671-3.693,10.749-3.693h33.389
		c4.875,0,8.828-3.953,8.828-8.828V0H158.897z"/>
	<path style="fill:#0096DC;" d="M220.69,0v26.483c0,4.875,3.953,8.828,8.828,8.828h17.655v70.621c0,4.879,3.948,8.828,8.828,8.828
		c4.879,0,8.828-3.948,8.828-8.828V35.31h17.655c4.875,0,8.828-3.953,8.828-8.828V0H220.69z"/>
	<path style="fill:#0096DC;" d="M362.608,114.108l1.813-17.523c-15.164-2.411-28.403-13.335-34.748-29.223
		c-1.811-4.534-6.957-6.733-11.474-4.922c-4.526,1.811-6.733,6.948-4.922,11.474C322.097,95.988,340.951,111.04,362.608,114.108z"/>
	<path style="fill:#0096DC;" d="M149.393,114.109c21.663-3.069,40.519-18.129,49.34-40.212c1.811-4.526-0.396-9.664-4.922-11.474
		c-4.526-1.818-9.664,0.388-11.474,4.922c-6.345,15.895-19.591,26.828-34.756,29.24L149.393,114.109z"/>
	<path style="fill:#0096DC;" d="M185.379,312.997c0-14.42-1.472-28.803-4.394-42.924l-30.916-149.429l16.34,157.952
		c0.873,8.438,0.637,16.954-0.704,25.332l-31.656,197.848c-0.858,5.364,3.285,10.222,8.717,10.222h42.613V312.997z"/>
	<path style="fill:#0096DC;" d="M256,141.241v0.089c9.742,0.011,17.655,7.821,17.655,17.566v344.276
		c0,4.875,3.953,8.828,8.828,8.828h17.655V167.724c0-14.626-11.857-26.483-26.483-26.483H256z"/>
</g>
<g>
</g>
<g>
</g>
<g>
</g>
<g>
</g>
<g>
</g>
<g>
</g>
<g>
</g>
<g>
</g>
<g>
</g>
<g>
</g>
<g>
</g>
<g>
</g>
<g>
</g>
<g>
</g>
<g>
</g>
</svg>
